<svg width="330" height="102" viewBox="0 0 330 102" fill="none" xmlns="http://www.w3.org/2000/svg">
<path d="M0.582775 0.291429H44.2909C44.8251 0.291429 47.6418 11.4629 52.7411 33.8057C53.7124 36.8657 55.8492 45.6086 59.1516 60.0343H59.7344L74.0124 0.291429H118.595V102H89.1645V37.0114C88.6789 37.0114 87.0277 42.84 84.2109 54.4971C83.8224 55.5171 79.4516 71.3514 71.0985 102H48.0789C47.6418 102 45.8935 95.88 42.8339 83.64L30.0129 37.0114H29.7215V102H0V0.874286C0.0485645 0.485714 0.242823 0.291429 0.582775 0.291429Z" fill="#101010"/>
<path d="M125.442 102V0H154.581V102H125.442Z" fill="#101010"/>
<path d="M234.712 0V24.1886H212.858V102H183.72V24.1886H161.866V0H234.712Z" fill="#101010"/>
<path d="M228.306 87.4286L222.915 102H192.028L232.822 0H259.047L299.841 102H268.954L263.782 87.4286H228.306ZM256.06 65.5714L246.445 38.4686L236.392 65.5714H256.06Z" fill="#FF13EF"/>
<path d="M300.861 102V0H330V102H300.861Z" fill="#FF13EF"/>
</svg>
